<?xml version="1.0" standalone="no"?>
<!DOCTYPE svg PUBLIC "-//W3C//DTD SVG 20010904//EN"
 "http://www.w3.org/TR/2001/REC-SVG-20010904/DTD/svg10.dtd">
<svg version="1.0" xmlns="http://www.w3.org/2000/svg"
 width="512.000000pt" height="512.000000pt" viewBox="0 0 512.000000 512.000000"
 preserveAspectRatio="xMidYMid meet">
<metadata>
Created by potrace 1.14, written by Peter Selinger 2001-2017
</metadata>
<g transform="translate(0.000000,512.000000) scale(0.100000,-0.100000)"
fill="#000000" stroke="none">
<path d="M2465 4873 c-22 -2 -47 -6 -55 -9 -8 -3 -39 -8 -68 -10 -30 -2 -59
-7 -65 -11 -7 -4 -14 -8 -17 -9 -3 0 -12 -3 -20 -7 -8 -3 -26 -8 -40 -10 -47
-10 -115 -28 -130 -34 -8 -3 -19 -7 -25 -8 -62 -10 -96 -19 -101 -26 -3 -5
-14 -9 -26 -9 -11 0 -40 -20 -64 -45 -23 -25 -45 -45 -49 -45 -3 0 -27 -16
-52 -35 -26 -20 -57 -38 -70 -41 -13 -4 -23 -12 -23 -19 0 -7 -8 -15 -19 -18
-12 -3 -20 -16 -23 -38 -7 -41 -3 -46 17 -29 8 7 15 8 15 2 0 -5 7 -12 14 -15
11 -4 13 -1 9 11 -4 9 -11 20 -16 23 -5 4 3 9 17 13 15 4 24 11 21 15 -3 5 4
7 16 4 13 -4 17 -8 9 -13 -6 -4 -11 -11 -10 -16 1 -5 -4 -10 -11 -13 -7 -2 -9
1 -4 10 6 11 5 12 -6 1 -9 -9 -10 -15 -2 -23 8 -8 16 -6 31 9 10 10 32 22 48
26 28 7 28 7 -10 -28 -24 -21 -44 -32 -54 -29 -9 4 -13 2 -9 -4 3 -5 -3 -9
-14 -8 -11 1 -24 8 -29 15 -7 11 -12 11 -23 2 -8 -7 -23 -9 -32 -5 -14 5 -17
3 -12 -10 4 -11 2 -14 -9 -10 -9 3 -14 0 -12 -8 2 -7 -7 -18 -19 -23 -23 -11
-40 -36 -23 -36 4 0 21 10 37 23 28 23 76 47 93 47 6 0 10 -7 10 -15 0 -8 -5
-15 -11 -15 -5 0 -7 6 -3 13 5 8 2 8 -9 -2 -9 -7 -17 -22 -17 -32 0 -11 -4
-19 -8 -19 -5 0 -9 -7 -9 -15 0 -8 7 -14 16 -13 11 2 16 -6 17 -27 2 -46 -6
-57 -33 -50 -20 5 -33 -3 -70 -39 -25 -25 -50 -43 -54 -40 -5 3 -9 -2 -9 -10
0 -24 -59 -86 -76 -79 -9 3 -14 -2 -14 -17 0 -16 4 -20 16 -16 12 5 14 1 8
-17 -4 -12 -7 -28 -7 -34 0 -7 -6 -13 -13 -13 -6 0 -14 -9 -17 -19 -3 -14 -11
-18 -26 -14 -17 4 -20 1 -20 -23 0 -16 -3 -42 -7 -58 -6 -26 -5 -29 14 -24 16
4 19 2 14 -10 -10 -27 -35 -51 -45 -45 -6 4 -8 -6 -4 -25 4 -18 2 -43 -3 -57
-10 -27 -3 -58 11 -49 5 3 9 0 9 -5 0 -6 -4 -11 -9 -11 -5 0 -11 -7 -14 -14
-4 -10 -1 -13 9 -9 12 4 14 -1 10 -22 -4 -19 0 -33 12 -42 9 -8 12 -12 6 -9
-7 3 -17 -1 -24 -9 -7 -8 -9 -15 -5 -15 4 0 1 -8 -6 -17 -13 -16 -12 -17 3 -4
10 7 15 18 11 25 -3 6 -2 8 2 3 11 -9 14 -48 4 -41 -13 8 -29 -32 -29 -71 0
-20 -5 -45 -11 -56 -14 -28 -4 -56 15 -40 8 7 16 8 19 4 3 -5 -6 -13 -19 -20
-13 -6 -22 -7 -18 -2 9 15 -3 10 -17 -8 -10 -11 -10 -14 -1 -9 8 5 12 0 12
-14 0 -11 11 -42 24 -69 l25 -48 -20 -20 c-22 -22 -39 -103 -21 -103 6 0 13
-13 17 -30 4 -16 13 -30 21 -30 15 0 19 -22 7 -34 -5 -4 -9 -31 -9 -59 -1 -29
-4 -70 -6 -92 -3 -22 -2 -49 2 -60 4 -11 4 -30 -1 -42 -6 -17 -5 -23 6 -23 8
0 15 -7 15 -15 0 -9 12 -27 27 -41 22 -20 25 -28 15 -48 -6 -13 -7 -29 -2 -37
5 -8 5 -19 -1 -26 -6 -7 -7 -18 -3 -25 17 -27 11 -63 -14 -90 -33 -35 -24 -44
21 -22 47 22 61 11 82 -64 33 -121 58 -198 67 -209 6 -7 7 -13 3 -13 -4 0 -1
-8 6 -17 10 -11 10 -14 2 -9 -7 4 -13 3 -13 -2 0 -6 8 -13 17 -16 14 -6 15 -9
4 -15 -10 -7 -8 -12 8 -23 11 -8 18 -18 14 -21 -3 -4 -1 -7 5 -7 7 0 12 -15
12 -35 0 -25 4 -35 16 -35 8 0 13 -4 10 -9 -3 -5 1 -21 9 -37 7 -15 12 -31 9
-36 -3 -4 0 -8 6 -8 6 0 8 -10 5 -23 -4 -15 0 -28 11 -38 15 -12 16 -11 9 21
-12 52 -13 74 -3 81 5 3 -4 19 -19 35 -16 16 -28 35 -27 42 1 6 2 17 3 23 0 5
7 7 14 3 9 -6 9 -5 0 8 -7 8 -9 19 -5 23 4 5 2 5 -4 2 -11 -6 -21 16 -31 68
-2 10 -9 23 -16 28 -7 5 -2 6 12 2 l24 -7 -22 31 c-12 17 -26 33 -30 35 -5 3
-7 24 -6 46 1 22 -1 40 -4 40 -3 0 -6 13 -7 30 -1 19 5 31 15 34 9 3 4 4 -11
2 -15 -2 -25 1 -22 5 5 9 -15 88 -27 105 -5 5 -6 19 -3 31 3 11 -1 27 -10 36
-16 15 -39 97 -28 97 3 0 1 5 -6 12 -7 7 -12 20 -12 30 0 10 -4 18 -9 18 -5 0
-11 10 -13 23 -2 12 -9 22 -16 22 -18 0 -52 56 -52 86 0 14 7 34 16 45 15 18
15 18 11 -9 -5 -30 15 -99 29 -104 5 -2 9 30 9 71 0 79 18 128 42 119 7 -3 13
-2 11 3 -2 5 2 11 7 12 27 9 35 27 33 78 -1 29 1 56 5 60 4 4 7 12 7 18 0 6
-4 5 -9 -2 -7 -11 -9 -11 -14 2 -4 10 -1 16 8 16 8 0 15 4 15 8 0 5 -14 7 -30
4 -25 -3 -29 -1 -24 12 4 11 1 16 -10 16 -9 0 -16 7 -16 16 0 9 -5 12 -12 8
-7 -4 -8 -3 -4 4 4 7 13 12 20 12 8 0 20 8 27 17 12 15 12 16 -7 11 -12 -3
-28 -2 -35 3 -10 6 -9 12 6 30 11 12 14 19 8 15 -7 -4 -13 -3 -13 1 0 15 23
33 41 33 10 0 21 5 24 10 10 16 -46 0 -69 -19 -20 -18 -20 -22 0 52 4 12 11
25 16 28 5 3 11 29 15 58 4 32 12 55 20 58 10 4 11 8 4 13 -8 4 -5 15 10 34
12 15 19 30 15 33 -3 4 -6 1 -6 -5 0 -7 -5 -12 -12 -12 -6 0 -4 7 5 18 10 10
17 24 17 30 0 6 5 14 11 18 8 5 10 -1 7 -19 -3 -15 -1 -24 3 -21 5 3 9 12 9
20 0 8 6 14 13 14 8 0 7 4 -3 10 -10 7 -11 10 -2 10 7 0 15 -7 18 -15 10 -26
20 -17 22 21 2 31 0 35 -15 30 -14 -6 -16 -5 -5 5 17 18 15 34 -3 19 -9 -7
-18 -10 -21 -7 -3 3 12 16 35 29 43 25 43 26 25 121 -5 22 -2 27 15 27 13 0
19 5 15 14 -3 8 -1 17 5 20 6 4 8 13 4 21 -3 9 1 15 11 15 9 0 15 3 14 8 -1 4
4 20 10 35 16 39 15 47 -5 41 -15 -5 -15 -4 -3 4 8 6 17 9 21 6 9 -5 17 18 12
34 -3 6 -11 12 -20 12 -12 0 -13 13 -8 80 4 56 3 80 -5 80 -6 0 -8 5 -5 10 3
6 -3 10 -14 10 -14 0 -19 5 -15 15 4 8 10 15 16 15 15 0 40 29 33 40 -3 6 1 7
9 4 11 -4 16 0 16 14 0 12 4 24 10 27 6 3 7 -1 4 -9 -3 -9 -4 -16 -2 -16 16 0
76 25 90 38 11 9 40 15 77 16 33 0 63 4 67 9 4 4 30 7 58 7 63 0 88 13 58 29
-26 14 -35 14 -27 1 3 -5 -1 -10 -9 -10 -8 0 -16 10 -18 23 -2 18 -9 22 -33
20 -25 -2 -27 0 -12 8 33 19 71 16 105 -9 17 -13 32 -32 32 -41 0 -14 2 -14
10 -1 8 12 14 10 39 -14 24 -23 32 -26 50 -17 14 8 21 8 21 1 0 -5 12 -10 27
-10 25 0 26 -1 8 -14 -25 -18 -27 -42 -4 -43 10 -1 29 -11 41 -23 12 -11 28
-18 35 -16 7 3 13 2 13 -3 0 -12 64 -28 99 -25 18 2 47 11 65 18 17 8 50 20
74 26 23 6 42 16 42 23 0 7 4 6 10 -3 7 -10 10 -11 10 -2 0 8 8 10 25 6 16 -4
30 0 41 10 10 10 24 14 36 10 12 -3 27 1 40 13 12 10 18 13 15 7 -11 -19 22
-25 46 -10 19 13 27 12 61 -4 21 -11 43 -17 48 -14 5 3 15 1 22 -6 23 -18 75
-30 82 -18 4 7 2 8 -4 4 -7 -4 -12 -2 -12 4 0 14 30 25 39 14 10 -15 45 -9 77
13 29 21 29 21 53 1 25 -19 25 -19 36 2 9 18 13 19 29 7 11 -8 17 -18 14 -23
-3 -5 0 -15 8 -22 8 -7 15 -10 15 -7 1 5 3 13 8 33 1 4 6 -3 11 -15 10 -26 28
-30 36 -9 6 15 54 10 54 -6 0 -5 6 -6 13 -2 9 6 9 5 0 -7 -9 -11 -7 -19 13
-38 21 -20 64 -89 69 -111 6 -21 18 -39 25 -35 9 5 23 -25 16 -32 -6 -6 -34
10 -35 20 -1 4 -1 12 -1 17 0 6 -5 10 -11 10 -7 0 -17 8 -24 17 -12 16 -12 14
-8 -10 3 -15 9 -24 14 -22 11 7 32 -33 25 -50 -3 -9 0 -12 8 -9 15 6 37 -70
34 -121 0 -17 4 -40 11 -52 6 -12 9 -28 6 -35 -3 -8 1 -28 10 -44 8 -16 15
-37 15 -47 0 -11 4 -15 12 -11 7 4 8 3 4 -4 -4 -7 -3 -12 1 -12 5 0 8 -18 8
-40 0 -44 -7 -50 -27 -22 -18 24 -38 26 -38 2 0 -14 -5 -18 -17 -14 -10 3 -6
-2 8 -10 18 -11 37 -40 58 -91 32 -76 33 -99 6 -88 -8 3 -15 0 -15 -7 0 -6 5
-8 10 -5 6 3 10 2 10 -4 0 -6 6 -8 14 -5 18 7 29 -26 20 -61 -4 -17 -11 -24
-20 -21 -12 5 -12 2 -3 -16 10 -19 9 -20 -10 -15 -16 4 -21 1 -21 -14 0 -10
-5 -19 -12 -19 -6 0 -8 -3 -5 -7 4 -3 17 2 29 13 19 17 21 17 15 2 -4 -13 -1
-18 11 -18 15 0 15 -2 2 -10 -8 -5 -10 -10 -4 -10 8 0 9 -13 4 -40 -5 -26 -4
-40 3 -40 6 0 7 -3 4 -7 -4 -3 0 -17 8 -30 10 -15 11 -23 4 -23 -7 0 -6 -8 4
-23 10 -15 12 -29 6 -38 -12 -19 -11 -39 1 -39 6 0 10 6 10 14 0 8 4 18 10 21
6 3 8 -14 6 -45 -1 -28 1 -53 5 -55 8 -6 -45 -120 -60 -130 -15 -9 -14 -38 2
-32 6 2 11 11 9 21 -5 30 7 17 38 -43 20 -37 37 -58 45 -55 13 5 36 103 37
159 1 58 -2 74 -18 90 -14 13 -15 30 -10 103 9 118 9 121 17 116 4 -2 20 7 36
22 15 14 39 28 53 30 25 5 25 7 22 85 -2 43 -8 79 -12 79 -5 0 -7 -8 -3 -17 3
-11 -3 -7 -15 8 -23 28 -32 70 -35 157 -1 28 -5 52 -9 52 -4 0 -3 12 2 26 7
17 7 31 1 38 -6 7 -9 31 -8 53 l1 41 22 -24 23 -24 -1 23 c-1 45 -30 191 -43
217 -7 14 -17 44 -21 65 -4 22 -14 56 -22 75 -9 19 -17 40 -18 45 -8 27 -34
93 -48 120 -9 17 -16 36 -16 42 0 7 -11 20 -24 28 -13 9 -31 34 -40 56 -9 21
-20 39 -25 39 -4 0 -24 22 -43 50 -19 27 -38 47 -41 43 -8 -7 -57 43 -57 58 0
5 -16 19 -35 30 -19 12 -35 25 -35 30 0 5 -6 9 -14 9 -7 0 -19 7 -26 15 -7 8
-20 15 -30 15 -9 0 -36 14 -59 30 -23 17 -46 28 -52 25 -5 -4 -8 -1 -7 7 2 7
-3 12 -11 10 -7 -1 -25 5 -38 14 -14 9 -22 11 -18 4 6 -9 3 -9 -14 0 -12 6
-19 16 -15 22 5 7 -1 9 -20 4 -20 -5 -26 -3 -26 10 0 11 -6 15 -20 11 -11 -3
-18 -2 -15 3 3 4 -2 10 -10 14 -8 3 -17 1 -20 -4 -4 -6 -13 -6 -23 -1 -23 12
-130 41 -167 45 -16 2 -37 6 -45 9 -44 17 -158 27 -183 18 -18 -7 -26 -7 -22
-1 3 6 0 9 -7 8 -7 -1 -31 -3 -53 -5z m84 -237 c8 -5 16 -3 22 5 7 11 9 10 9
-3 0 -13 -8 -17 -35 -16 -21 1 -35 6 -35 14 0 13 17 13 39 0z m-11 -53 c2 -9
-7 -13 -27 -13 -31 0 -42 14 -18 23 19 8 40 3 45 -10z m477 -3 c3 -5 1 -10 -4
-10 -6 0 -11 5 -11 10 0 6 2 10 4 10 3 0 8 -4 11 -10z m-1155 -21 c-7 -11 -14
-18 -17 -15 -3 3 0 12 7 21 18 21 23 19 10 -6z m820 11 c0 -5 -4 -10 -10 -10
-5 0 -10 5 -10 10 0 6 5 10 10 10 6 0 10 -4 10 -10z m380 0 c0 -5 -5 -10 -11
-10 -5 0 -7 5 -4 10 3 6 8 10 11 10 2 0 4 -4 4 -10z m-761 -62 c1 -5 -9 -8
-21 -8 -16 0 -19 3 -10 9 7 4 12 12 11 17 -4 21 3 27 11 9 5 -11 9 -23 9 -27z
m741 28 c0 -3 -4 -8 -10 -11 -5 -3 -10 -1 -10 4 0 6 5 11 10 11 6 0 10 -2 10
-4z m-1270 -10 c0 -2 -7 -7 -16 -10 -8 -3 -12 -2 -9 4 6 10 25 14 25 6z m559
-42 c-6 -8 -18 -14 -25 -14 -11 0 -12 4 -2 19 6 10 18 17 25 14 10 -4 11 -9 2
-19z m-299 4 c29 2 32 0 17 -9 -23 -14 -69 -8 -75 10 -3 9 0 11 9 5 7 -4 29
-7 49 -6z m-195 -17 c-6 -5 -30 -16 -54 -25 -35 -12 -41 -12 -30 -1 8 7 30 18
49 23 46 13 45 13 35 3z m578 -14 c3 -8 -3 -14 -14 -14 -11 -1 -19 5 -19 13 0
18 26 19 33 1z m-563 -27 c-8 -5 -19 -10 -25 -10 -5 0 -3 5 5 10 8 5 20 10 25
10 6 0 3 -5 -5 -10z m625 0 c-3 -5 -10 -10 -16 -10 -5 0 -9 5 -9 10 0 6 7 10
16 10 8 0 12 -4 9 -10z m-775 -49 c0 -5 -13 -16 -30 -24 -20 -10 -29 -11 -27
-4 1 7 13 17 27 24 31 15 30 15 30 4z m1060 -41 c0 -5 -5 -10 -11 -10 -5 0 -7
5 -4 10 3 6 8 10 11 10 2 0 4 -4 4 -10z m-1154 -169 c-3 -5 0 -11 8 -14 20 -8
14 -39 -11 -66 l-22 -24 5 34 c13 82 12 79 20 79 3 0 3 -4 0 -9z m5 -232 c13
-26 -4 -61 -40 -82 -40 -24 -39 -16 4 27 43 44 35 82 -12 53 -12 -8 -12 10 1
31 9 15 30 2 47 -29z m2118 7 c12 -18 21 -37 21 -42 0 -5 -5 -1 -11 9 -6 9
-14 15 -20 12 -5 -4 -9 0 -10 7 0 7 -2 21 -4 31 -5 25 1 21 24 -17z m-125
-101 c-6 -16 -24 -21 -24 -7 0 11 11 22 21 22 5 0 6 -7 3 -15z m-2152 -42 c-4
-10 -7 -28 -6 -41 0 -12 -3 -25 -9 -29 -6 -3 -7 -1 -3 5 4 7 3 12 -1 12 -5 0
-16 -12 -25 -27 -10 -16 -18 -23 -18 -16 0 6 12 25 26 42 14 17 23 31 20 31
-4 0 -2 9 4 20 13 25 24 27 12 3z m50 5 c-17 -17 -15 -33 3 -18 12 10 15 10
15 0 0 -9 7 -7 20 5 19 17 20 17 21 -1 1 -10 1 -23 0 -28 -1 -4 4 -16 11 -25
11 -14 11 -14 -3 -3 -18 13 -44 8 -71 -16 -22 -19 -24 1 -3 22 9 8 23 13 33
10 14 -5 15 -4 2 5 -21 15 -27 14 -50 -9 l-20 -20 0 26 c0 15 10 35 22 45 23
21 39 26 20 7z m-138 -90 c-18 -29 -38 -47 -47 -41 -5 3 3 16 18 29 31 27 40
30 29 12z m2306 -49 c15 -28 5 -23 -15 7 -9 15 -12 23 -6 20 6 -4 16 -16 21
-27z m64 5 c3 -8 2 -12 -4 -9 -6 3 -10 10 -10 16 0 14 7 11 14 -7z m-94 -15
c0 -6 -4 -7 -10 -4 -5 3 -10 11 -10 16 0 6 5 7 10 4 6 -3 10 -11 10 -16z
m-2166 -78 c-17 -15 -17 -15 -3 3 11 15 11 20 1 23 -6 3 -9 9 -6 15 4 7 11 4
16 -7 8 -13 5 -21 -8 -34z m2242 27 c0 -13 4 -34 8 -47 6 -17 5 -22 -5 -19 -8
3 -14 14 -14 26 0 11 -3 24 -7 28 -4 4 -3 13 3 21 15 17 15 17 15 -9z m-81
-18 c3 -5 1 -10 -4 -10 -6 0 -11 5 -11 10 0 6 2 10 4 10 3 0 8 -4 11 -10z m41
-45 c-3 -8 -2 -23 1 -32 6 -16 8 -15 13 5 5 22 6 22 17 -8 10 -27 10 -31 -3
-26 -9 3 -14 -1 -14 -12 0 -11 -6 -6 -16 13 -14 26 -12 75 2 75 3 0 4 -7 0
-15z m14 -109 c0 -3 -4 -8 -10 -11 -5 -3 -10 -1 -10 4 0 6 5 11 10 11 6 0 10
-2 10 -4z m28 -41 c-3 -3 -9 2 -12 12 -6 14 -5 15 5 6 7 -7 10 -15 7 -18z
m-15 -47 c-3 -6 -12 1 -20 16 -8 14 -11 31 -7 37 3 6 12 -1 20 -16 8 -15 11
-32 7 -37z m-2304 -4 c-8 -26 -21 -49 -29 -52 -8 -3 -18 -10 -22 -16 -11 -15
-9 34 2 59 6 14 9 15 10 5 1 -9 5 -6 10 8 5 12 14 22 20 22 5 0 10 8 10 17 0
9 3 14 6 10 4 -3 0 -27 -7 -53z m2385 2 c-3 -9 1 -13 12 -13 9 1 18 -5 19 -13
2 -8 7 -24 11 -35 8 -19 7 -19 -11 -2 -14 14 -20 16 -26 6 -4 -7 -5 -17 -3
-21 3 -4 0 -8 -6 -8 -6 0 -13 7 -16 15 -11 28 -26 15 -20 -17 l6 -33 -14 35
c-17 41 -20 61 -6 40 7 -11 10 -8 10 16 0 35 6 44 31 44 12 0 16 -5 13 -14z
m-2406 -302 c12 -45 22 -92 22 -105 -1 -23 -1 -23 -15 -5 -11 14 -15 16 -15 5
-1 -22 -58 104 -69 152 -8 35 -7 45 6 55 26 18 47 -11 71 -102z"/>
<path d="M2115 4360 c-3 -5 -1 -10 4 -10 6 0 11 5 11 10 0 6 -2 10 -4 10 -3 0
-8 -4 -11 -10z"/>
<path d="M1490 4349 c0 -4 -6 -14 -12 -21 -7 -8 -19 -24 -26 -37 -12 -21 -12
-23 2 -18 9 4 16 2 16 -3 0 -16 19 -11 41 11 11 11 18 27 15 34 -3 8 0 17 6
21 6 4 8 3 5 -3 -4 -6 0 -14 8 -17 12 -4 13 -2 6 13 -6 10 -8 20 -6 23 3 3 -8
5 -25 5 -16 0 -30 -4 -30 -8z"/>
<path d="M1438 4243 c6 -3 12 -11 12 -19 0 -20 17 -18 29 4 8 15 5 17 -22 18
-18 1 -26 -1 -19 -3z"/>
<path d="M1670 4050 c-12 -8 -10 -10 8 -10 13 0 20 4 17 10 -7 12 -6 12 -25 0z"/>
<path d="M3466 4047 c3 -10 9 -15 12 -12 3 3 0 11 -7 18 -10 9 -11 8 -5 -6z"/>
<path d="M3384 3962 c2 -4 1 -14 -4 -21 -9 -16 7 -71 21 -71 6 0 7 -20 2 -47
-8 -56 -8 -81 2 -130 5 -26 9 -33 15 -23 6 9 5 17 -2 21 -16 10 0 29 26 29 16
0 29 -12 45 -40 25 -44 31 -49 31 -22 0 10 -13 32 -30 50 -16 18 -30 37 -30
42 0 5 -8 14 -17 19 -10 6 -15 11 -11 11 4 0 0 12 -7 27 -8 15 -11 30 -6 33
13 8 6 47 -12 65 -10 9 -15 21 -12 26 9 14 13 11 29 -18 11 -20 15 -23 16 -10
0 9 1 20 3 24 1 3 -13 15 -31 25 -18 10 -31 15 -28 10z"/>
<path d="M1690 3911 c0 -6 4 -13 10 -16 6 -3 7 1 4 9 -7 18 -14 21 -14 7z"/>
<path d="M3562 3717 c1 -15 6 -27 10 -27 3 0 10 -9 13 -21 4 -11 9 -19 11 -16
5 5 -16 69 -27 82 -6 5 -8 -2 -7 -18z"/>
<path d="M2066 3663 c-4 -4 -53 -9 -109 -10 -184 -3 -186 -4 -202 -36 -10 -19
-10 -26 -2 -19 6 5 23 12 37 15 l25 6 -22 -16 c-13 -8 -23 -21 -23 -27 0 -12
-114 -66 -138 -66 -10 0 -10 -5 -2 -20 15 -27 3 -63 -17 -56 -11 5 -13 2 -9
-10 3 -8 6 -22 6 -30 0 -24 86 -57 131 -51 22 3 37 1 36 -5 -2 -9 73 -21 118
-19 36 2 238 11 338 15 68 3 97 1 97 -7 0 -27 34 -97 47 -97 12 0 12 4 -1 22
-22 30 -20 48 4 48 15 0 20 7 20 26 0 24 -2 25 -32 19 l-33 -7 40 37 c22 20
34 34 28 30 -25 -12 -13 23 15 45 l27 21 -32 -5 c-34 -6 -53 9 -56 43 -1 19
-16 24 -28 8 -8 -11 -46 24 -52 48 -4 16 -5 17 -6 3 -1 -17 -2 -17 -21 -1 -11
10 -20 23 -20 29 0 11 -12 19 -32 23 -5 0 -17 10 -28 21 -11 11 -31 20 -44 20
-13 0 -31 2 -38 5 -8 3 -17 2 -22 -2z m-1 -23 c3 -5 1 -10 -4 -10 -6 0 -11 5
-11 10 0 6 2 10 4 10 3 0 8 -4 11 -10z m-162 -47 c-7 -2 -21 -2 -30 0 -10 3
-4 5 12 5 17 0 24 -2 18 -5z m227 -70 c75 -14 122 -33 153 -61 20 -19 24 -28
15 -34 -10 -6 -10 -10 0 -17 17 -10 -39 -20 -123 -22 l-60 0 43 -17 c23 -9 42
-19 42 -22 0 -8 -97 4 -131 16 -23 8 -23 8 6 14 l30 7 -35 10 c-19 6 -70 10
-113 9 -65 -1 -75 1 -60 11 9 7 33 13 52 14 32 1 34 2 11 9 -24 7 -23 7 10 12
19 3 11 4 -18 2 -30 -3 -71 -13 -92 -24 -68 -35 -230 -46 -230 -16 0 15 30 26
74 26 16 0 46 5 67 12 29 8 36 14 29 24 -17 20 15 45 45 34 17 -6 27 -5 36 6
6 8 19 12 28 9 9 -2 22 -1 29 3 13 9 135 6 192 -5z m170 -163 c0 -13 -40 -13
-60 0 -11 7 -5 10 23 10 20 0 37 -4 37 -10z"/>
<path d="M2060 3420 c36 -16 86 -22 73 -9 -6 6 -30 13 -54 15 -39 4 -41 3 -19
-6z"/>
<path d="M3078 3644 c-7 -6 -47 -12 -98 -14 l-35 -2 30 -13 c25 -11 27 -15 13
-20 -10 -4 -15 -11 -12 -16 3 -5 0 -9 -5 -9 -6 0 -11 6 -11 13 -1 8 -4 7 -13
-3 -7 -9 -31 -16 -57 -17 -36 -1 -40 0 -20 7 14 4 18 9 10 10 -9 1 -7 5 8 10
12 5 22 15 21 22 0 10 -2 10 -6 1 -2 -7 -15 -13 -28 -13 -14 0 -29 -9 -35 -20
-18 -33 -56 -53 -77 -41 -17 10 -16 10 4 11 21 0 40 16 30 26 -2 2 -16 0 -31
-5 -19 -8 -25 -7 -23 2 3 16 -25 16 -30 0 -2 -6 5 -21 17 -33 12 -12 20 -23
18 -24 -1 -2 -25 -9 -51 -16 -45 -12 -47 -14 -31 -31 26 -29 11 -53 -31 -46
-19 3 -35 2 -35 -3 0 -17 31 -39 48 -33 9 3 14 3 10 -2 -4 -4 -3 -14 3 -21 9
-11 5 -16 -15 -24 -31 -12 -32 -16 -5 -31 17 -9 23 -7 36 10 13 20 71 31 58
12 -10 -18 15 -22 167 -27 162 -6 183 -8 174 -23 -10 -15 16 -18 62 -8 55 11
65 2 30 -28 -19 -16 -23 -25 -14 -28 16 -6 41 8 41 25 0 7 10 15 22 18 16 3
20 9 14 18 -4 8 -12 13 -17 12 -5 -1 -10 3 -12 8 -4 12 64 9 93 -3 14 -6 10 2
-12 24 -18 18 -33 36 -33 40 0 13 58 41 84 41 20 0 24 4 19 18 -6 15 -5 15 10
3 15 -12 17 -11 18 5 2 36 -3 66 -17 102 l-14 37 3 -32 c2 -18 0 -33 -5 -33
-4 0 -8 9 -8 19 0 11 -5 23 -11 26 -5 4 -14 18 -19 31 -5 13 -16 24 -23 24 -7
0 -24 11 -36 24 -21 22 -71 33 -71 15 0 -4 -9 -7 -20 -6 -11 1 -20 4 -20 7 0
3 -9 6 -20 7 -13 1 -18 -2 -13 -10 5 -9 2 -8 -9 0 -8 7 -17 10 -20 7z m100
-147 c28 -13 28 -23 1 -37 -11 -7 -19 -14 -16 -16 3 -3 19 4 36 14 30 18 34
18 66 4 71 -32 26 -66 -65 -50 -30 5 -84 11 -120 13 l-65 4 55 -12 c66 -15
122 -41 146 -68 24 -26 8 -24 -69 11 -37 17 -75 30 -84 29 -22 0 75 -48 99
-49 9 0 20 -5 23 -10 4 -7 -16 -8 -62 -3 -126 13 -302 7 -332 -12 -5 -3 -12
-1 -15 4 -5 8 32 24 59 25 6 1 13 4 16 9 3 4 16 10 29 12 36 7 45 22 20 30
-15 5 -26 2 -31 -6 -5 -8 -9 -10 -9 -5 0 5 -6 4 -12 -1 -7 -5 -29 -9 -48 -8
-19 1 -39 -3 -43 -9 -5 -6 -5 0 -2 13 7 21 5 23 -19 19 -28 -6 -34 3 -13 20
17 15 93 42 147 53 179 37 265 44 308 26z"/>
<path d="M3827 3608 c8 -43 13 -48 13 -15 0 15 0 30 1 34 0 4 -4 9 -10 11 -7
2 -9 -8 -4 -30z"/>
<path d="M3515 3590 c4 -12 8 -28 9 -34 4 -28 17 -36 33 -20 15 15 14 18 -17
47 -29 28 -32 28 -25 7z m35 -40 c0 -5 -5 -10 -11 -10 -5 0 -7 5 -4 10 3 6 8
10 11 10 2 0 4 -4 4 -10z"/>
<path d="M1570 3468 c0 -9 5 -20 10 -23 13 -8 13 5 0 25 -8 13 -10 13 -10 -2z"/>
<path d="M1551 3444 c0 -11 3 -14 6 -6 3 7 2 16 -1 19 -3 4 -6 -2 -5 -13z"/>
<path d="M1540 3402 c0 -10 43 -52 53 -52 4 0 3 9 -3 20 -11 21 -50 46 -50 32z"/>
<path d="M3610 3381 c0 -5 7 -11 15 -15 8 -3 15 -1 15 3 0 5 -7 11 -15 15 -8
3 -15 1 -15 -3z"/>
<path d="M1570 3329 c0 -5 9 -9 20 -9 11 0 20 2 20 4 0 2 -9 6 -20 9 -11 3
-20 1 -20 -4z"/>
<path d="M1628 3313 c7 -3 16 -2 19 1 4 3 -2 6 -13 5 -11 0 -14 -3 -6 -6z"/>
<path d="M1808 3304 c-6 -5 -52 -9 -136 -12 -28 -1 -41 -6 -37 -13 4 -6 -2
-13 -13 -16 -17 -4 -41 -33 -27 -33 2 0 46 14 97 30 51 17 100 30 110 30 10 0
18 5 18 10 0 11 -4 13 -12 4z"/>
<path d="M1776 3234 c-4 -11 -2 -15 8 -11 7 3 18 1 24 -5 8 -8 9 -5 5 11 -6
25 -28 28 -37 5z"/>
<path d="M1914 3221 c9 -10 16 -23 16 -29 0 -33 201 -41 250 -10 27 17 25 28
-5 28 -14 0 -25 -6 -25 -14 0 -11 -18 -9 -87 9 -49 12 -105 25 -127 28 -36 6
-37 5 -22 -12z m47 -28 c13 -16 12 -17 -3 -4 -10 7 -18 15 -18 17 0 8 8 3 21
-13z"/>
<path d="M2170 3230 c0 -6 7 -10 15 -10 8 0 15 2 15 4 0 2 -7 6 -15 10 -8 3
-15 1 -15 -4z"/>
<path d="M2210 3230 c0 -5 12 -10 26 -10 14 0 23 4 19 10 -3 6 -15 10 -26 10
-10 0 -19 -4 -19 -10z"/>
<path d="M3355 3230 c-4 -6 7 -10 27 -10 25 0 29 3 18 10 -19 13 -37 13 -45 0z"/>
<path d="M1142 3205 c-18 -23 -19 -29 -7 -69 7 -23 22 -63 33 -87 11 -24 23
-54 26 -66 4 -13 12 -23 17 -23 10 0 12 20 13 154 1 77 -1 90 -19 102 -28 20
-41 17 -63 -11z"/>
<path d="M1654 3210 c-12 -5 -25 -14 -30 -21 -5 -9 -2 -10 10 -6 10 4 24 7 32
7 9 0 13 4 10 9 -4 5 0 12 6 14 7 3 9 5 3 6 -5 0 -20 -4 -31 -9z"/>
<path d="M1860 3205 c0 -10 10 -15 33 -15 l32 1 -25 14 c-32 18 -40 18 -40 0z"/>
<path d="M3428 3213 c7 -3 16 -2 19 1 4 3 -2 6 -13 5 -11 0 -14 -3 -6 -6z"/>
<path d="M2969 3179 c13 -5 52 -15 86 -22 49 -10 67 -10 91 0 16 6 27 13 24
13 -3 1 -36 3 -75 5 -38 3 -88 7 -110 10 -33 3 -36 3 -16 -6z"/>
<path d="M2800 3175 c0 -10 81 -55 99 -55 11 0 23 -5 27 -11 8 -13 91 -6 106
9 7 7 -2 9 -29 5 -26 -3 -50 0 -71 11 -17 9 -44 16 -60 16 -16 0 -35 7 -42 15
-12 14 -30 20 -30 10z"/>
<path d="M1560 3149 c0 -5 5 -7 10 -4 6 3 10 8 10 11 0 2 -4 4 -10 4 -5 0 -10
-5 -10 -11z"/>
<path d="M3395 3135 c31 -26 115 -58 115 -44 0 5 -12 12 -27 15 -16 4 -42 18
-59 31 -41 31 -68 29 -29 -2z"/>
<path d="M3050 3140 c0 -5 5 -10 11 -10 5 0 7 5 4 10 -3 6 -8 10 -11 10 -2 0
-4 -4 -4 -10z"/>
<path d="M3887 3133 c-4 -3 -7 -56 -7 -117 0 -88 3 -108 13 -97 6 6 12 15 13
19 3 25 20 74 41 120 19 42 22 56 12 68 -12 14 -60 19 -72 7z"/>
<path d="M3833 3088 c-17 -18 -53 -95 -53 -114 0 -2 11 8 25 21 13 14 29 25
34 25 11 0 26 61 19 80 -2 6 -13 1 -25 -12z"/>
<path d="M2225 3020 c-8 -16 -15 -34 -15 -40 0 -7 -18 -32 -40 -57 -22 -25
-40 -50 -40 -55 0 -4 -15 -30 -33 -56 -18 -26 -40 -62 -48 -79 -7 -18 -16 -33
-20 -33 -3 0 -11 -16 -19 -35 -8 -19 -18 -35 -22 -35 -5 0 -7 -4 -4 -8 3 -5
-1 -35 -9 -68 -17 -74 -24 -144 -15 -144 9 0 23 28 25 50 1 8 3 21 4 28 0 6 6
12 12 12 6 0 8 -9 4 -21 -6 -18 -5 -19 14 -7 11 7 16 15 11 18 -5 3 -1 14 10
23 11 9 20 22 19 29 0 10 -2 10 -6 1 -2 -7 -9 -13 -14 -13 -6 0 -7 5 -4 10 3
6 0 10 -7 10 -7 1 2 7 20 15 17 8 32 18 32 23 0 5 11 21 25 36 13 14 20 26 15
26 -4 0 -16 3 -25 6 -13 5 -16 2 -13 -17 2 -17 -2 -25 -15 -27 -17 -3 -18 0
-12 29 4 19 18 50 31 71 13 21 24 42 24 48 0 5 3 10 8 10 4 0 15 14 25 32 15
25 20 29 28 17 12 -19 11 -25 -7 -43 -8 -9 -11 -16 -5 -16 6 0 11 -7 11 -15 0
-8 -4 -15 -10 -15 -5 0 -9 -11 -8 -24 1 -14 6 -22 10 -20 5 3 6 10 3 15 -3 5
1 6 9 3 9 -3 13 -10 10 -15 -3 -5 7 -10 23 -10 17 -1 21 -3 10 -6 -9 -2 -15
-8 -12 -13 3 -5 13 -6 22 -3 13 5 15 2 11 -15 -4 -12 -2 -22 3 -22 5 0 9 6 9
14 0 9 9 14 20 13 17 -1 18 -3 4 -18 -14 -15 -12 -18 15 -27 16 -6 32 -8 35
-5 3 4 6 1 6 -5 0 -6 -4 -14 -10 -17 -5 -3 -10 -11 -10 -18 0 -6 6 -3 13 7 12
16 14 16 26 2 8 -9 19 -16 25 -16 6 0 2 7 -8 15 -11 8 -15 15 -9 15 5 0 18 -9
27 -19 13 -15 14 -20 4 -24 -9 -4 -7 -6 4 -6 9 -1 19 3 23 9 3 6 15 6 29 0 19
-7 25 -5 29 10 6 22 45 16 64 -9 6 -9 15 -13 18 -9 4 4 16 3 25 -2 14 -7 19
-5 23 10 3 11 1 23 -4 26 -17 10 -9 25 11 19 15 -5 20 -2 21 12 0 10 3 13 6 6
8 -20 23 -15 23 7 0 11 4 20 10 20 5 0 7 -7 4 -15 -4 -9 0 -15 8 -15 17 0 38
20 38 35 0 5 -5 3 -10 -5 -8 -13 -10 -12 -10 3 0 9 7 17 15 17 8 0 15 -7 15
-16 0 -13 3 -14 15 -4 12 10 16 10 19 -1 13 -43 14 -44 15 -26 1 10 -4 27 -9
38 -8 15 -7 19 4 19 9 0 16 16 20 48 9 62 15 82 26 82 10 0 76 -115 82 -140 2
-8 7 -18 12 -21 4 -4 9 -20 11 -37 1 -17 7 -37 13 -45 6 -7 14 -27 17 -45 4
-27 2 -32 -14 -32 -11 0 -23 5 -26 10 -4 6 -10 8 -14 5 -10 -5 -39 25 -55 58
-7 12 -17 22 -24 22 -14 0 -16 -19 -2 -21 6 -1 13 -2 17 -3 4 0 -2 -7 -12 -15
-11 -8 -23 -12 -27 -10 -5 3 -8 -2 -8 -12 0 -13 3 -14 13 -5 8 6 17 8 21 4 4
-4 11 -2 15 6 6 10 10 9 14 -4 4 -9 3 -14 -2 -11 -5 3 -12 -1 -15 -10 -3 -9
-11 -12 -18 -8 -8 4 -9 3 -5 -2 5 -5 16 -9 25 -9 23 0 23 -46 0 -63 -10 -7
-16 -18 -13 -23 4 -5 -3 -9 -14 -9 -29 0 -51 -11 -51 -24 0 -7 -7 -13 -15 -13
-8 0 -15 4 -15 9 0 5 7 11 15 14 23 9 18 21 -12 27 -18 4 -32 1 -39 -8 -6 -8
-28 -15 -50 -17 -21 -1 -42 -7 -46 -12 -5 -7 -8 -3 -8 8 0 11 -3 17 -6 13 -3
-3 -21 3 -40 14 -38 21 -74 25 -74 9 0 -6 -12 -2 -27 7 -15 10 -24 12 -20 6 6
-9 2 -13 -12 -13 -11 0 -25 8 -30 18 -10 16 -10 16 -11 -1 0 -10 -4 -15 -10
-12 -5 3 -10 2 -10 -4 0 -5 6 -12 13 -15 6 -4 1 -4 -13 0 -14 3 -33 6 -42 5
-10 0 -18 7 -18 16 0 9 -6 13 -15 9 -8 -3 -15 -1 -15 3 0 5 -11 8 -25 7 -14 0
-25 -4 -25 -9 0 -4 -3 -6 -7 -6 -22 4 -43 -2 -38 -10 3 -5 -4 -12 -15 -16 -16
-5 -18 -10 -10 -25 14 -26 13 -30 -9 -30 -14 0 -17 6 -13 25 3 20 0 25 -17 25
-13 0 -21 6 -21 18 0 14 -2 15 -10 2 -8 -13 -10 -12 -10 3 0 12 -4 16 -12 11
-9 -5 -9 -2 1 9 12 15 11 17 -3 17 -9 0 -16 7 -16 15 0 9 -6 12 -16 8 -11 -4
-12 -8 -4 -13 8 -5 9 -10 1 -14 -7 -5 -7 -15 -1 -32 6 -14 7 -37 3 -52 -4 -15
-6 -36 -4 -46 2 -14 -2 -17 -14 -12 -11 4 -15 1 -13 -10 6 -27 23 -20 34 15
l11 34 7 -27 c4 -15 4 -36 1 -47 -4 -10 -2 -19 4 -19 10 0 7 -73 -5 -91 -2 -4
22 -72 53 -151 53 -129 64 -148 118 -204 33 -33 78 -72 100 -86 41 -26 122
-48 153 -43 99 18 133 30 130 44 -2 9 -9 16 -15 16 -7 0 -21 8 -33 17 -19 17
-21 17 -32 -1 -6 -11 -17 -17 -24 -14 -6 2 -15 0 -19 -6 -11 -18 -60 -12 -84
10 -19 18 -25 19 -32 8 -6 -10 -9 -10 -9 -2 0 7 -6 10 -14 7 -16 -6 -96 83
-96 109 0 10 -7 29 -16 42 -9 14 -14 34 -11 45 3 11 1 20 -4 20 -6 0 -4 7 3
16 36 44 50 54 61 47 7 -4 20 -8 30 -9 9 -1 21 -2 26 -3 5 0 7 -10 4 -21 -4
-15 0 -20 13 -20 15 0 16 2 5 9 -10 7 -11 13 -2 27 6 11 11 13 11 6 0 -7 4
-11 9 -7 5 3 13 0 17 -6 4 -8 3 -9 -4 -5 -7 4 -12 1 -12 -8 0 -9 7 -16 15 -16
13 0 15 7 10 33 -6 28 -4 33 14 34 23 2 27 -16 9 -37 -11 -12 -10 -12 5 -1 9
7 17 10 18 5 1 -16 7 -41 14 -63 7 -23 24 -29 26 -8 3 48 14 76 41 100 27 25
30 26 25 8 -3 -12 -1 -19 3 -16 5 3 11 1 15 -4 4 -7 15 -7 30 -1 16 6 25 6 25
0 0 -16 20 -11 48 11 20 15 28 17 31 7 2 -7 11 -19 19 -27 13 -13 14 -12 8 9
-7 24 -7 24 9 5 17 -21 16 -53 -5 -100 -7 -16 -18 -49 -26 -72 -13 -41 -20
-53 -56 -94 -22 -24 -22 -24 1 -26 38 -3 123 96 184 215 32 61 62 112 67 112
14 0 31 95 20 113 -1 1 -3 13 -6 26 -2 14 -8 29 -13 35 -13 16 -10 65 5 95 8
14 14 35 15 46 0 16 3 13 14 -10 7 -16 16 -38 19 -47 9 -30 24 -20 24 17 0 19
-4 35 -9 35 -5 0 -9 9 -9 21 0 11 -4 28 -9 38 -14 25 3 49 23 32 20 -16 36
-99 39 -194 2 -66 4 -75 16 -62 8 8 16 31 18 52 1 21 5 64 8 97 3 34 1 64 -5
71 -6 7 -12 38 -15 69 -2 36 -11 66 -24 82 -11 14 -18 31 -15 39 3 7 0 16 -5
20 -6 3 -9 10 -6 15 3 5 -1 17 -10 27 -8 10 -16 23 -16 28 -2 12 -42 73 -111
166 -26 37 -48 72 -48 78 0 6 -5 11 -11 11 -5 0 -15 14 -20 30 -11 30 -23 38
-34 21 -3 -5 0 -15 7 -23 18 -18 61 -88 76 -120 16 -39 7 -55 -36 -62 -60 -10
-110 -26 -124 -40 -26 -25 -64 -43 -90 -41 -16 0 -28 -4 -28 -10 0 -7 -3 -7
-8 0 -6 10 -26 12 -44 5 -5 -1 -12 -3 -17 -4 -20 -3 -21 -15 -2 -21 12 -3 21
-13 21 -21 0 -30 -42 -11 -97 44 -63 62 -84 75 -153 95 -40 11 -45 16 -48 45
-5 49 64 150 94 138 18 -7 19 35 2 52 -20 20 -37 14 -53 -18z m355 -460 c0 -5
-5 -10 -11 -10 -5 0 -7 5 -4 10 3 6 8 10 11 10 2 0 4 -4 4 -10z m330 -120 c7
-14 7 -20 0 -20 -5 0 -10 -8 -10 -17 -1 -14 -30 39 -30 53 0 13 31 1 40 -16z
m-630 -60 c0 -3 -14 -6 -30 -7 -17 -1 -30 2 -30 8 0 6 5 7 10 4 6 -3 10 1 10
9 0 14 3 14 20 4 11 -7 20 -15 20 -18z m-73 4 c-3 -3 -12 -4 -19 -1 -8 3 -5 6
6 6 11 1 17 -2 13 -5z m-170 -36 c-3 -8 -6 -5 -6 6 -1 11 2 17 5 13 3 -3 4
-12 1 -19z m143 4 c0 -13 -12 -22 -22 -16 -10 6 -1 24 13 24 5 0 9 -4 9 -8z
m305 -7 c91 -7 144 -23 123 -36 -15 -10 -310 -11 -324 -1 -12 9 -17 35 -5 28
5 -4 12 -2 15 2 3 5 16 7 30 5 13 -3 27 0 31 7 4 6 17 9 29 6 11 -3 57 -8 101
-11z"/>
<path d="M3495 3000 c3 -5 8 -10 11 -10 2 0 4 5 4 10 0 6 -5 10 -11 10 -5 0
-7 -4 -4 -10z"/>
<path d="M3526 2993 c-3 -4 0 -13 6 -21 7 -8 17 -24 23 -36 6 -11 19 -20 28
-20 9 1 17 -4 17 -12 0 -8 4 -14 9 -14 5 0 3 17 -5 38 -14 35 -65 77 -78 65z
m55 -57 c5 3 9 0 9 -6 0 -15 -23 -7 -26 8 -1 7 0 8 3 2 2 -5 9 -8 14 -4z"/>
<path d="M2400 2730 c0 -6 7 -10 15 -10 8 0 15 2 15 4 0 2 -7 6 -15 10 -8 3
-15 1 -15 -4z"/>
<path d="M1671 2658 c0 -9 7 -21 17 -27 9 -5 16 -12 15 -15 -2 -3 0 -6 4 -7
17 -2 12 20 -6 26 -11 3 -22 14 -24 23 -4 16 -5 16 -6 0z"/>
<path d="M3330 2651 c-7 -14 -7 -22 2 -27 7 -4 8 -3 4 4 -4 7 -3 12 2 12 5 0
9 7 9 15 0 20 -4 19 -17 -4z"/>
<path d="M3610 2603 c-7 -38 -17 -71 -22 -74 -5 -3 -10 -16 -11 -27 -1 -12 -4
-22 -8 -22 -4 0 -10 -12 -13 -26 -9 -33 -33 -59 -38 -42 -5 14 -35 -68 -49
-130 -16 -77 -71 -226 -88 -239 -14 -12 -14 -12 4 -6 18 6 18 5 6 -10 -12 -15
-12 -17 3 -11 15 6 50 60 44 66 -2 2 5 14 15 28 9 13 17 34 17 46 0 12 7 27
16 35 8 7 13 21 11 31 -3 10 -2 16 3 13 4 -3 10 2 14 10 3 8 0 15 -7 15 -7 1
-1 7 12 14 16 9 46 12 95 8 39 -2 69 -2 66 1 -3 3 -25 7 -48 8 -48 3 -56 11
-61 54 -4 40 -9 43 -20 14 -5 -13 -10 -17 -10 -9 -1 22 11 37 33 41 12 3 31
26 47 57 26 48 27 56 7 53 -15 -2 -8 47 8 60 26 21 35 56 22 84 -19 42 -34 28
-48 -42z"/>
<path d="M3690 2630 c0 -5 5 -10 11 -10 5 0 7 5 4 10 -3 6 -8 10 -11 10 -2 0
-4 -4 -4 -10z"/>
<path d="M1724 2595 c-3 -14 -10 -22 -15 -19 -12 7 -11 -13 1 -35 8 -15 6 -17
-15 -13 -15 2 -25 0 -25 -7 0 -7 4 -10 8 -7 4 2 14 1 22 -5 8 -5 10 -9 4 -9
-7 0 -14 -9 -17 -21 -4 -15 -2 -18 7 -10 15 13 27 4 20 -14 -3 -7 0 -16 5 -20
6 -3 9 -10 6 -15 -3 -5 -1 -11 5 -15 6 -4 10 6 10 24 0 24 4 31 20 31 11 0 24
-9 28 -20 5 -14 11 -17 22 -10 11 7 11 10 2 10 -7 0 -10 5 -6 12 4 7 3 8 -4 4
-15 -9 -15 -1 -2 24 7 13 7 21 -2 26 -6 4 -14 2 -16 -4 -2 -7 -8 -10 -13 -7
-5 4 -6 -1 -3 -9 3 -9 1 -16 -5 -16 -15 0 -14 37 2 43 9 4 9 6 -1 6 -8 1 -10
6 -6 14 6 9 5 9 -7 0 -12 -9 -14 -5 -17 29 -1 22 1 37 6 34 5 -3 9 1 9 9 0 24
-16 17 -23 -10z m9 -100 c-3 -9 -8 -14 -10 -11 -3 3 -2 9 2 15 9 16 15 13 8
-4z"/>
<path d="M1220 2606 c0 -13 37 -65 42 -60 11 10 -4 45 -23 55 -11 5 -19 7 -19
5z"/>
<path d="M1770 2590 c-8 -5 -12 -11 -9 -14 2 -3 11 -1 19 4 8 5 12 11 9 14 -2
3 -11 1 -19 -4z"/>
<path d="M3291 2587 c-1 -10 -5 -16 -10 -13 -5 3 -11 -1 -15 -9 -3 -9 3 -19
15 -26 23 -12 41 -3 20 10 -7 5 -9 10 -3 12 5 2 6 12 1 24 -7 18 -8 18 -8 2z"/>
<path d="M2870 2580 c0 -5 5 -10 10 -10 6 0 10 5 10 10 0 6 -4 10 -10 10 -5 0
-10 -4 -10 -10z"/>
<path d="M1740 2571 c0 -6 4 -13 10 -16 6 -3 7 1 4 9 -7 18 -14 21 -14 7z"/>
<path d="M3792 2542 c-47 -43 -60 -81 -14 -41 31 27 72 70 72 76 0 11 -22 -2
-58 -35z"/>
<path d="M1813 2553 c-17 -6 -16 -33 1 -33 7 0 16 9 19 20 5 20 2 22 -20 13z"/>
<path d="M2280 2555 c0 -5 5 -17 10 -25 5 -8 10 -10 10 -5 0 6 -5 17 -10 25
-5 8 -10 11 -10 5z"/>
<path d="M2051 2488 c-6 -17 -5 -24 5 -26 8 -2 11 -9 8 -15 -5 -9 -4 -9 6 0 8
7 10 19 5 30 -5 10 -7 21 -7 26 4 17 -9 5 -17 -15z"/>
<path d="M3525 2460 c-3 -6 1 -7 9 -4 18 7 21 14 7 14 -6 0 -13 -4 -16 -10z"/>
<path d="M1830 2450 c0 -5 5 -10 11 -10 5 0 7 5 4 10 -3 6 -8 10 -11 10 -2 0
-4 -4 -4 -10z"/>
<path d="M1640 2389 c0 -5 5 -7 10 -4 6 3 10 8 10 11 0 2 -4 4 -10 4 -5 0 -10
-5 -10 -11z"/>
<path d="M1530 2377 c0 -8 6 -14 14 -14 8 0 12 6 9 14 -3 7 -9 13 -14 13 -5 0
-9 -6 -9 -13z"/>
<path d="M1950 2368 c0 -7 -3 -23 -6 -35 -5 -17 -2 -21 12 -19 10 2 20 9 22
17 3 11 1 11 -8 -1 -9 -12 -11 -9 -7 18 2 17 0 32 -5 32 -4 0 -8 -6 -8 -12z"/>
<path d="M1797 2329 c4 -13 9 -17 15 -11 11 11 3 32 -12 32 -4 0 -6 -9 -3 -21z"/>
<path d="M1557 2323 c-4 -6 0 -13 8 -17 8 -3 17 0 21 6 4 6 3 8 -4 4 -5 -3
-12 -1 -14 6 -3 8 -6 9 -11 1z"/>
<path d="M1660 2283 c0 -6 8 -17 18 -24 16 -13 16 -13 2 6 -8 11 -16 22 -17
24 -2 2 -3 0 -3 -6z"/>
<path d="M1573 2248 c-2 -18 0 -20 7 -8 12 18 13 30 2 30 -4 0 -9 -10 -9 -22z"/>
<path d="M1940 2259 c0 -5 5 -7 10 -4 6 3 10 8 10 11 0 2 -4 4 -10 4 -5 0 -10
-5 -10 -11z"/>
<path d="M3350 2255 c0 -8 4 -15 10 -15 5 0 7 7 4 15 -4 8 -8 15 -10 15 -2 0
-4 -7 -4 -15z"/>
<path d="M3320 2250 c0 -5 5 -10 10 -10 6 0 10 5 10 10 0 6 -4 10 -10 10 -5 0
-10 -4 -10 -10z"/>
<path d="M3395 2231 c-3 -5 -1 -12 5 -16 5 -3 10 1 10 9 0 18 -6 21 -15 7z"/>
<path d="M3328 2223 c7 -3 16 -2 19 1 4 3 -2 6 -13 5 -11 0 -14 -3 -6 -6z"/>
<path d="M3334 2191 c4 -5 1 -11 -6 -13 -7 -3 -9 -11 -3 -24 7 -17 8 -18 12
-1 3 9 9 15 14 12 11 -7 11 -3 3 19 -3 9 -10 16 -16 16 -5 0 -7 -4 -4 -9z"/>
<path d="M1670 2181 c0 -5 5 -13 10 -16 6 -3 10 -2 10 4 0 5 -4 13 -10 16 -5
3 -10 2 -10 -4z"/>
<path d="M1749 2158 c-6 -82 5 -201 22 -258 11 -36 22 -81 25 -100 3 -19 8
-39 11 -44 3 -4 9 -49 14 -100 8 -92 10 -105 23 -141 5 -11 13 -33 19 -50 6
-16 14 -32 19 -36 4 -3 11 -27 14 -55 3 -27 17 -71 29 -97 13 -27 22 -54 19
-61 -3 -7 2 -19 11 -26 16 -13 20 -30 7 -30 -5 0 -14 16 -22 35 -8 19 -20 35
-27 35 -8 0 -10 7 -6 18 6 14 4 15 -9 4 -13 -10 -17 -10 -21 2 -3 8 -3 23 0
34 5 21 -18 44 -25 24 -2 -7 -8 -12 -14 -12 -6 0 -3 9 7 20 17 18 17 20 2 14
-9 -3 -17 -2 -17 4 0 5 -9 12 -20 15 -11 3 -20 14 -20 25 0 11 -7 25 -15 32
-8 7 -13 16 -10 20 3 5 0 10 -7 12 -14 5 -20 38 -7 38 5 0 9 12 9 26 0 19 -4
25 -15 20 -8 -3 -15 -1 -15 4 0 6 -5 10 -11 10 -6 0 -9 -7 -5 -15 3 -9 0 -15
-9 -15 -8 0 -15 -5 -15 -10 0 -7 6 -7 19 0 12 6 22 6 25 1 3 -5 -1 -11 -9 -15
-8 -3 -15 -11 -15 -18 0 -9 3 -8 10 2 8 12 10 10 10 -8 0 -13 6 -36 14 -50 22
-43 35 -92 29 -108 -3 -8 -1 -14 3 -14 11 0 10 -52 0 -68 -4 -7 -3 -12 2 -12
12 0 22 24 22 51 0 10 4 19 9 19 8 0 8 -26 -3 -112 -1 -10 -5 -21 -9 -24 -4
-4 -1 -14 6 -22 8 -10 8 -16 1 -19 -5 -2 -9 -17 -8 -34 1 -17 -3 -32 -11 -35
-11 -4 -11 -10 1 -32 9 -17 10 -30 4 -36 -6 -6 -10 -22 -10 -36 0 -14 -6 -34
-13 -45 -7 -11 -19 -40 -26 -65 -7 -25 -17 -50 -23 -57 -6 -8 -5 -19 2 -33 6
-12 9 -28 6 -36 -11 -28 22 -13 34 16 7 17 17 30 22 30 5 0 7 4 4 9 -3 5 1 15
10 22 13 11 15 11 13 -2 -2 -7 3 -24 10 -37 7 -13 10 -30 7 -38 -3 -8 -1 -14
4 -14 9 0 14 14 11 33 0 4 6 7 14 7 8 0 15 7 15 15 0 7 7 18 16 23 20 11 10
32 -15 32 -9 0 -22 5 -29 12 -9 9 -12 9 -12 0 0 -20 -16 -13 -17 8 -2 22 16
22 35 0 11 -13 12 -12 7 8 -7 25 12 30 34 10 10 -11 12 -9 9 7 -2 11 -11 20
-19 19 -13 -1 -13 4 -5 33 6 19 16 31 23 29 7 -3 10 0 8 7 -17 54 -13 165 6
136 4 -8 4 -16 -1 -19 -8 -5 1 -77 24 -198 3 -15 1 -20 -6 -16 -7 5 -9 -2 -4
-22 7 -32 13 -56 16 -64 1 -3 2 -9 1 -13 -9 -52 3 -157 18 -166 6 -4 9 -15 5
-24 -4 -12 0 -15 15 -14 12 1 21 7 21 13 0 7 4 14 9 16 4 2 12 14 16 27 5 15
4 21 -3 17 -6 -4 -10 2 -9 14 1 15 7 20 19 17 9 -3 20 0 23 7 3 6 3 -1 0 -16
-4 -20 0 -30 15 -38 18 -10 19 -13 5 -26 -8 -9 -15 -19 -15 -24 0 -15 18 -21
23 -8 2 7 3 4 1 -8 -4 -22 17 -46 49 -57 11 -4 15 -12 11 -18 -4 -8 -3 -9 4
-5 7 4 12 1 13 -6 0 -7 5 -2 10 11 7 17 5 30 -6 47 -19 29 -19 31 0 31 9 0 14
-6 11 -13 -3 -7 3 -18 11 -26 15 -11 16 -11 10 5 -4 11 -2 17 8 17 8 0 14 -3
14 -7 -3 -21 3 -33 17 -33 9 0 27 -9 41 -20 20 -16 28 -17 44 -7 10 6 19 20
19 31 0 16 3 15 20 -7 14 -18 26 -24 42 -19 14 3 19 2 14 -6 -5 -8 0 -12 13
-12 10 0 28 -3 38 -7 10 -3 15 -2 10 2 -4 5 0 17 10 27 9 10 11 18 5 18 -6 0
-12 -5 -14 -11 -3 -9 -11 -8 -28 1 -18 10 -21 15 -10 18 7 3 16 0 18 -7 3 -9
7 -9 18 -1 19 17 32 4 27 -27 -4 -27 -4 -27 11 -9 8 10 13 23 10 28 -3 5 -2 7
3 6 4 -2 34 12 65 30 31 18 60 32 65 30 14 -3 53 13 53 22 0 5 8 6 18 3 15 -6
15 -5 3 10 -11 14 -11 17 0 17 8 0 21 -4 29 -10 15 -10 30 4 30 29 0 11 -3 11
-15 1 -11 -9 -15 -9 -15 -1 0 18 29 25 45 11 13 -11 14 -10 9 4 -4 9 1 24 10
34 8 10 26 38 39 62 12 24 29 46 36 48 8 3 11 0 7 -7 -5 -7 4 -13 24 -17 17
-4 33 -11 36 -15 6 -11 -20 -39 -35 -39 -6 0 -11 -4 -11 -10 0 -5 7 -7 15 -4
17 7 17 7 19 -56 1 -25 7 -44 12 -42 5 1 10 5 10 10 6 34 20 51 47 58 17 5 32
16 35 24 4 12 2 13 -9 3 -15 -15 -39 -17 -39 -3 0 5 7 7 15 4 9 -4 15 0 15 10
0 18 21 21 37 5 8 -8 13 -7 18 2 6 8 4 10 -5 4 -9 -6 -11 -4 -5 4 4 7 16 11
26 8 11 -3 19 -2 19 2 0 4 15 15 33 25 17 9 24 14 14 11 -14 -4 -17 -1 -12 14
6 21 -10 38 -20 21 -8 -13 -25 -13 -25 -1 0 5 9 13 20 16 25 8 23 45 -4 76
-18 22 -14 55 5 43 8 -5 9 -3 4 5 -5 9 -10 10 -18 2 -14 -14 -30 -14 -22 -1 3
6 1 10 -5 10 -7 0 -10 28 -9 81 1 45 -3 84 -8 88 -6 3 -7 15 -3 26 6 19 8 18
20 -5 7 -14 15 -43 16 -64 1 -22 9 -43 17 -48 9 -4 18 -22 22 -38 7 -31 22
-47 33 -35 3 3 0 10 -8 15 -13 9 -13 10 0 10 11 0 12 2 3 8 -18 11 -29 72 -14
72 7 0 10 -4 7 -9 -10 -16 5 -39 30 -45 14 -4 26 -16 30 -31 5 -21 9 -22 25
-12 12 8 15 14 7 18 -7 4 -16 5 -20 3 -4 -3 -8 0 -8 5 0 6 10 11 23 11 21 1
21 1 -5 23 -34 28 -35 37 -5 29 21 -5 21 -4 5 14 -9 10 -19 31 -23 46 -5 17
-12 25 -21 21 -17 -6 -19 -54 -2 -71 7 -7 8 -12 4 -12 -5 0 -3 -7 4 -15 18
-21 6 -30 -13 -10 -17 16 -17 88 -1 184 5 35 4 42 -6 36 -8 -5 -11 -3 -8 5 7
21 35 20 54 -1 30 -33 55 -18 44 26 -7 28 1 94 20 165 14 52 22 110 23 163 1
20 4 37 8 37 4 0 7 13 7 29 -1 15 2 34 6 40 12 19 24 121 14 121 -7 0 -13 -39
-9 -62 0 -5 -3 -8 -8 -8 -5 0 -20 -30 -34 -67 -37 -99 -49 -121 -74 -134 -13
-7 -23 -16 -23 -21 0 -4 -4 -8 -10 -8 -5 0 -7 13 -3 32 4 22 3 29 -6 24 -6 -4
-9 -12 -6 -17 4 -5 0 -9 -8 -9 -13 0 -33 -43 -29 -62 1 -5 -3 -8 -8 -8 -6 0
-10 -6 -10 -14 0 -8 -12 -29 -27 -47 -16 -18 -21 -30 -13 -26 8 5 5 0 -7 -9
-13 -9 -23 -22 -23 -28 0 -6 -14 -31 -30 -55 -16 -24 -27 -49 -23 -55 3 -6 3
-8 -1 -4 -5 4 -23 -9 -42 -27 -20 -21 -34 -29 -34 -20 0 8 11 24 24 37 28 28
39 73 20 89 -11 9 -15 7 -20 -5 -3 -9 -9 -14 -13 -12 -4 3 -6 -7 -6 -22 2 -35
-5 -48 -16 -31 -6 10 -9 8 -9 -7 0 -29 -23 -47 -38 -32 -6 6 -13 10 -15 7 -22
-32 -56 -87 -60 -99 -4 -10 -6 -11 -6 -2 -1 7 -5 11 -11 7 -5 -3 -6 -13 -3
-23 6 -15 5 -15 -10 -3 -15 12 -17 11 -17 -3 0 -9 -7 -17 -15 -17 -8 -1 -19
-3 -25 -4 -5 -1 -17 -3 -26 -4 -12 -1 -15 -7 -9 -28 l6 -27 -20 25 c-16 19
-20 20 -21 7 0 -9 5 -18 12 -20 9 -3 9 -6 0 -12 -7 -4 -14 3 -18 19 -4 15 -12
24 -19 22 -6 -3 -18 -1 -26 3 -8 5 -19 5 -26 -1 -7 -6 -17 -8 -22 -5 -5 4 -12
2 -16 -4 -3 -5 -16 -8 -28 -5 -56 12 -92 13 -110 3 -15 -7 -18 -7 -12 2 6 9 2
9 -14 1 -14 -8 -27 -8 -39 -2 -12 6 -23 5 -36 -4 -10 -8 -25 -11 -33 -8 -12 5
-12 7 -1 14 10 7 9 9 -5 9 -10 0 -15 5 -12 10 3 6 -1 10 -10 10 -9 0 -14 4
-11 9 3 5 -3 11 -14 14 -12 3 -24 -1 -30 -11 -6 -11 -9 -12 -10 -4 0 7 -4 10
-10 7 -5 -3 -10 -1 -10 5 0 6 -4 8 -10 5 -5 -3 -7 0 -4 9 7 18 -32 61 -40 43
-2 -7 -5 -4 -5 6 -1 19 -31 24 -31 5 0 -6 -3 -8 -6 -5 -4 4 -2 13 5 20 8 11 7
20 -9 40 -11 14 -20 30 -20 36 0 6 -5 11 -11 11 -5 0 -8 -4 -5 -9 4 -5 -3 -7
-14 -4 -11 3 -20 9 -20 13 0 13 26 30 35 22 4 -4 1 3 -6 15 -9 15 -20 21 -31
17 -10 -3 -18 -1 -18 5 0 6 3 10 8 10 21 -4 24 2 7 15 -14 10 -17 17 -9 27 16
21 26 51 14 44 -6 -3 -10 -13 -10 -20 0 -9 -6 -12 -15 -9 -18 7 -20 34 -2 34
7 0 18 10 26 22 12 19 11 23 -3 33 -9 7 -16 20 -16 30 0 17 -1 17 -22 -1 -22
-18 -22 -18 -8 0 14 18 13 18 -10 11 -23 -7 -24 -6 -11 9 9 10 11 20 5 24 -5
4 -10 14 -12 22 -5 29 -26 61 -37 56 -6 -2 -11 10 -11 30 0 19 4 34 9 34 4 0
5 5 2 10 -3 6 1 10 9 10 9 0 16 5 16 11 0 6 -9 8 -21 4 -19 -6 -20 -5 -8 17 7
12 14 29 15 36 1 7 14 24 28 37 24 22 37 53 17 41 -5 -3 -12 1 -15 10 -10 25
-7 44 7 44 12 0 34 21 51 48 5 8 -1 11 -21 9 -16 -2 -33 -6 -38 -9 -6 -3 -28
-4 -50 -2 -28 2 -36 1 -25 -6 13 -9 13 -10 0 -10 -30 0 -37 16 -36 82 1 36 -1
65 -4 63 -3 -2 -4 14 -2 36 3 24 0 39 -7 39 -6 0 -11 6 -11 14 0 25 -20 28
-21 4z m121 -238 c0 -5 -5 -10 -11 -10 -5 0 -7 5 -4 10 3 6 8 10 11 10 2 0 4
-4 4 -10z m30 -88 c0 -15 -2 -15 -10 -2 -13 20 -13 33 0 25 6 -3 10 -14 10
-23z m50 -406 c0 -3 -4 -8 -10 -11 -5 -3 -10 -1 -10 4 0 6 5 11 10 11 6 0 10
-2 10 -4z m1252 -128 c-4 -17 -24 -22 -23 -5 1 4 1 19 1 34 0 25 1 26 14 8 7
-10 11 -27 8 -37z m-1152 -130 c0 -5 -7 -3 -15 6 -8 8 -15 18 -15 22 0 3 7 1
15 -6 8 -7 15 -17 15 -22z m1050 -18 c0 -5 -5 -10 -11 -10 -5 0 -7 5 -4 10 3
6 8 10 11 10 2 0 4 -4 4 -10z m-156 -46 c3 -8 2 -12 -4 -9 -6 3 -10 10 -10 16
0 14 7 11 14 -7z m-51 -49 c-3 -9 -8 -14 -10 -11 -3 3 -2 9 2 15 9 16 15 13 8
-4z m-659 -41 c3 -8 2 -12 -4 -9 -6 3 -10 10 -10 16 0 14 7 11 14 -7z m-357
-16 c-3 -8 -6 -5 -6 6 -1 11 2 17 5 13 3 -3 4 -12 1 -19z m851 5 c-5 -7 -14
-10 -19 -7 -16 10 -9 23 10 21 15 -1 17 -4 9 -14z m346 -59 c9 -24 7 -96 -3
-90 -5 3 -11 18 -14 33 -3 16 -8 38 -12 51 -5 16 -3 22 8 22 8 0 18 -7 21 -16z
m-1204 -39 c0 -8 -2 -15 -4 -15 -2 0 -6 7 -10 15 -3 8 -1 15 4 15 6 0 10 -7
10 -15z m1270 -70 c11 -13 10 -14 -4 -9 -9 3 -16 10 -16 15 0 13 6 11 20 -6z
m0 -35 c0 -5 -2 -10 -4 -10 -3 0 -8 5 -11 10 -3 6 -1 10 4 10 6 0 11 -4 11
-10z m-63 -24 c-3 -8 -1 -16 4 -18 15 -5 -1 -38 -18 -38 -8 0 -12 -4 -8 -9 3
-5 1 -12 -5 -16 -13 -8 -13 18 1 32 9 9 15 29 18 56 1 4 4 7 7 7 3 0 4 -6 1
-14z m-1213 -11 c-4 -8 -8 -15 -10 -15 -2 0 -4 7 -4 15 0 8 4 15 10 15 5 0 7
-7 4 -15z m1086 -24 c0 -4 -6 -8 -13 -8 -8 0 -14 6 -14 13 0 7 6 10 14 7 7 -3
13 -8 13 -12z m160 -11 c0 -5 -5 -10 -11 -10 -5 0 -7 5 -4 10 3 6 8 10 11 10
2 0 4 -4 4 -10z m-278 -72 c-6 -6 -16 -7 -23 -3 -9 6 -7 12 7 22 21 15 34 -1
16 -19z m-343 -163 c0 -5 -4 -3 -9 5 -5 8 -9 22 -9 30 0 16 17 -16 18 -35z
m46 -15 c3 -5 1 -10 -4 -10 -6 0 -11 5 -11 10 0 6 2 10 4 10 3 0 8 -4 11 -10z
m-140 -10 c3 -5 1 -10 -4 -10 -6 0 -11 5 -11 10 0 6 2 10 4 10 3 0 8 -4 11
-10z"/>
<path d="M2998 2140 c-3 -17 -1 -33 4 -36 4 -3 8 4 8 15 0 10 3 26 6 35 3 9 2
16 -4 16 -5 0 -12 -14 -14 -30z"/>
<path d="M3151 2104 c0 -11 3 -14 6 -6 3 7 2 16 -1 19 -3 4 -6 -2 -5 -13z"/>
<path d="M1971 2074 c0 -11 3 -14 6 -6 3 7 2 16 -1 19 -3 4 -6 -2 -5 -13z"/>
<path d="M3168 2076 c-11 -8 -18 -26 -18 -45 0 -17 -4 -31 -9 -31 -8 0 -29
-113 -33 -180 -1 -19 -7 -38 -12 -42 -16 -11 -24 -128 -9 -128 7 0 13 -5 13
-11 0 -6 -7 -8 -16 -5 -18 7 -53 -30 -54 -56 0 -9 -5 -20 -10 -23 -7 -4 -8
-24 -4 -52 4 -26 3 -43 -2 -40 -5 3 -10 -15 -11 -39 0 -25 -7 -51 -13 -59 -10
-13 -8 -15 13 -15 26 0 59 38 64 75 2 11 12 49 22 85 11 36 23 92 27 125 3 33
11 71 17 85 6 14 9 29 8 33 -1 5 3 34 9 65 6 32 13 77 16 102 3 25 7 61 11 80
5 30 11 91 9 90 -1 0 -9 -7 -18 -14z"/>
<path d="M2960 2013 c1 -18 28 -44 35 -34 3 6 0 18 -9 26 -16 16 -26 19 -26 8z"/>
<path d="M3360 1969 c-7 -17 -16 -27 -19 -22 -3 4 -14 9 -24 9 -13 2 -15 -1
-7 -10 5 -7 7 -16 3 -19 -3 -4 1 -7 10 -7 24 0 21 -12 -13 -50 -20 -22 -26
-36 -19 -41 7 -4 8 -15 3 -30 -12 -36 -13 -49 -4 -49 4 0 16 32 25 70 9 39 21
70 26 70 5 0 11 11 15 25 3 14 11 25 16 25 6 0 8 7 5 15 -4 8 -2 17 3 20 12 8
13 25 1 25 -5 0 -14 -14 -21 -31z"/>
<path d="M2951 1920 c1 -32 5 -57 10 -55 4 3 9 0 12 -7 2 -7 3 -4 1 7 -2 11
-4 41 -4 68 0 26 -5 47 -10 47 -6 0 -10 -24 -9 -60z"/>
<path d="M1930 1873 c0 -9 3 -13 7 -10 3 4 12 -1 19 -11 12 -15 13 -14 14 11
0 20 -5 27 -20 27 -12 0 -20 -7 -20 -17z"/>
<path d="M2052 1805 c-1 -13 5 -26 14 -29 8 -3 13 -2 9 3 -3 5 -1 11 3 13 5 1
2 11 -7 20 -16 16 -17 16 -19 -7z"/>
<path d="M3260 1820 c0 -13 18 -22 24 -11 3 5 -1 11 -9 15 -8 3 -15 1 -15 -4z"/>
<path d="M1960 1806 c0 -8 4 -17 9 -20 5 -4 7 3 4 14 -6 23 -13 26 -13 6z"/>
<path d="M2105 1758 c3 -13 7 -38 8 -56 1 -20 6 -30 14 -28 11 5 23 -15 23
-37 0 -7 -4 -6 -10 3 -14 22 -20 7 -11 -26 5 -16 10 -24 10 -19 1 6 8 -2 15
-17 12 -23 18 -68 9 -68 -11 0 -43 49 -43 66 0 13 -8 31 -18 41 -11 10 -22 27
-27 38 -7 19 -8 19 -15 -5 -10 -36 -2 -96 23 -165 23 -66 56 -108 99 -126 15
-6 25 -16 22 -21 -8 -13 89 -7 98 6 3 5 24 8 45 7 21 -1 63 -3 93 -5 45 -3
134 8 230 28 40 8 80 30 94 51 14 21 13 24 -3 40 -11 9 -21 13 -22 8 -8 -18
-70 -45 -82 -35 -8 6 -29 5 -62 -4 -79 -22 -86 -23 -81 -15 13 21 -60 56 -85
40 -8 -4 -19 -3 -26 3 -9 7 -17 7 -28 -2 -8 -7 -15 -8 -15 -2 0 5 -9 12 -20
15 -11 3 -20 1 -20 -4 0 -5 -5 -9 -11 -9 -6 0 -9 6 -6 14 9 22 -5 28 -20 8
-10 -13 -12 -14 -8 -1 6 16 -31 39 -62 39 -13 0 -13 3 -2 16 9 11 10 20 2 32
-5 9 -9 27 -8 39 1 13 -1 21 -4 18 -3 -3 -14 20 -26 52 -15 43 -25 57 -38 55
-15 -3 -22 14 -18 41 0 4 -4 7 -9 7 -6 0 -8 -10 -5 -22z m-10 -148 c3 -5 -1
-10 -10 -10 -9 0 -13 5 -10 10 3 6 8 10 10 10 2 0 7 -4 10 -10z m92 -122 c-3
-7 -5 -2 -5 12 0 14 2 19 5 13 2 -7 2 -19 0 -25z"/>
<path d="M2755 1724 c-9 -9 -14 -23 -11 -30 3 -8 1 -14 -4 -14 -6 0 -10 6 -10
13 0 6 -10 0 -23 -15 -12 -15 -53 -42 -90 -61 -60 -31 -65 -35 -42 -39 14 -3
28 -1 31 3 8 14 54 11 54 -3 0 -7 8 -4 18 8 9 12 25 24 34 27 20 7 89 107 82
119 -8 12 -21 10 -39 -8z"/>
<path d="M1646 1712 c-2 -4 0 -14 6 -22 8 -12 9 -11 4 4 -5 15 -2 17 14 13 11
-3 18 -1 14 4 -6 11 -31 12 -38 1z"/>
<path d="M1925 1660 c-3 -5 -1 -10 4 -10 6 0 11 5 11 10 0 6 -2 10 -4 10 -3 0
-8 -4 -11 -10z"/>
<path d="M1679 1617 c9 -12 9 -16 -1 -20 -9 -4 -9 -6 2 -6 8 0 21 3 28 7 9 6
5 12 -14 21 -24 10 -26 10 -15 -2z"/>
<path d="M3226 1601 c-10 -10 -13 -22 -8 -25 5 -3 14 6 20 19 14 30 11 31 -12
6z"/>
<path d="M1731 1564 c0 -11 3 -14 6 -6 3 7 2 16 -1 19 -3 4 -6 -2 -5 -13z"/>
<path d="M1700 1560 c0 -5 5 -10 11 -10 5 0 7 5 4 10 -3 6 -8 10 -11 10 -2 0
-4 -4 -4 -10z"/>
<path d="M2783 1475 c0 -8 7 -15 15 -15 12 0 12 3 2 15 -7 8 -13 15 -15 15 -1
0 -2 -7 -2 -15z"/>
<path d="M2558 1443 c7 -3 16 -2 19 1 4 3 -2 6 -13 5 -11 0 -14 -3 -6 -6z"/>
<path d="M3002 1315 c0 -16 2 -22 5 -12 2 9 2 23 0 30 -3 6 -5 -1 -5 -18z"/>
<path d="M3300 1251 c0 -6 4 -13 10 -16 6 -3 7 1 4 9 -7 18 -14 21 -14 7z"/>
<path d="M3266 1127 c3 -10 9 -15 12 -12 3 3 0 11 -7 18 -10 9 -11 8 -5 -6z"/>
<path d="M1692 931 c-1 -30 0 -32 13 -15 16 22 19 38 6 30 -5 -4 -11 0 -14 6
-2 7 -4 -2 -5 -21z"/>
<path d="M3180 892 c0 -5 7 -13 16 -16 10 -4 14 -1 12 6 -5 15 -28 23 -28 10z"/>
<path d="M3708 845 c5 -64 -27 -123 -112 -207 -151 -149 -311 -245 -667 -398
-193 -84 -275 -110 -320 -103 -108 17 -472 171 -527 223 -12 11 -26 19 -30 17
-4 -3 -18 0 -32 6 -14 5 -30 11 -37 12 -6 2 -43 23 -81 48 -56 36 -69 50 -65
65 2 11 0 23 -6 26 -7 4 -11 -1 -11 -13 0 -29 -11 -26 -67 16 -86 66 -100 78
-112 101 -7 12 -16 20 -22 17 -5 -4 -9 -2 -9 4 0 5 -14 25 -30 43 -17 18 -28
39 -25 46 3 7 0 10 -5 7 -13 -8 -23 36 -17 74 4 24 2 30 -6 23 -7 -6 -30 -13
-52 -16 -22 -4 -51 -14 -65 -23 -42 -29 -91 -50 -179 -78 -47 -15 -90 -33 -96
-41 -6 -8 -17 -16 -25 -17 -8 -2 -21 -6 -28 -11 -7 -4 -16 -6 -19 -3 -5 5 -44
-7 -108 -33 -16 -7 -39 -14 -50 -16 -50 -7 -252 -61 -268 -71 -7 -4 -24 -8
-39 -9 -56 -3 -118 -15 -123 -25 -4 -5 -17 -9 -30 -9 -13 0 -36 -5 -52 -12
-15 -6 -31 -10 -36 -10 -4 1 -49 -13 -100 -32 -50 -19 -110 -39 -132 -46 -22
-6 -59 -19 -82 -27 l-43 -16 0 -178 0 -179 2560 0 2560 0 0 240 0 240 -37 15
c-52 22 -297 92 -728 209 -66 18 -142 40 -168 50 -57 19 -71 20 -61 4 4 -7 -4
-1 -19 13 -16 16 -48 30 -84 38 -32 7 -69 17 -83 21 -14 4 -45 14 -70 21 -25
7 -56 19 -70 26 -14 7 -41 13 -60 13 l-35 0 3 -45z"/>
<path d="M1699 848 c-8 -12 -21 -41 -31 -63 -14 -32 -15 -36 -2 -20 23 29 56
96 51 102 -3 3 -11 -6 -18 -19z"/>
<path d="M1705 710 c-3 -5 -1 -10 4 -10 6 0 11 5 11 10 0 6 -2 10 -4 10 -3 0
-8 -4 -11 -10z"/>
<path d="M1701 685 c1 -19 18 -51 18 -35 0 8 -4 22 -9 30 -5 8 -9 11 -9 5z"/>
<path d="M1795 669 c-4 -6 -5 -12 -2 -15 2 -3 7 2 10 11 7 17 1 20 -8 4z"/>
<path d="M1812 624 c-10 -11 -10 -19 3 -43 18 -37 31 -45 38 -26 4 9 1 12 -9
8 -11 -4 -13 2 -9 30 7 39 -3 52 -23 31z"/>
<path d="M1850 510 c0 -5 7 -7 15 -4 8 4 15 8 15 10 0 2 -7 4 -15 4 -8 0 -15
-4 -15 -10z"/>
<path d="M1982 508 c5 -15 28 -23 28 -10 0 5 -7 13 -16 16 -10 4 -14 1 -12 -6z"/>
<path d="M1990 459 c0 -5 4 -9 9 -9 5 0 11 -9 14 -20 3 -13 11 -18 20 -14 9 3
25 -4 36 -15 20 -20 30 -9 13 14 -11 16 -92 54 -92 44z"/>
<path d="M2220 430 c0 -5 5 -10 11 -10 5 0 7 5 4 10 -3 6 -8 10 -11 10 -2 0
-4 -4 -4 -10z"/>
<path d="M2345 431 c-3 -6 3 -15 14 -20 25 -14 31 -14 31 -1 0 6 -9 10 -21 10
-11 0 -17 5 -14 10 3 6 4 10 1 10 -3 0 -7 -4 -11 -9z"/>
<path d="M2237 411 c-17 -6 -16 -8 8 -19 15 -7 30 -10 33 -7 3 3 0 5 -6 5 -6
0 -12 6 -14 14 -2 8 -10 11 -21 7z"/>
<path d="M2270 409 c0 -5 5 -7 10 -4 6 3 10 8 10 11 0 2 -4 4 -10 4 -5 0 -10
-5 -10 -11z"/>
</g>
</svg>
